HIERARCHY
ROOT joint_Root
{
	OFFSET 0.0 0.0 0.0
	CHANNELS 6 Xposition Yposition Zposition Zrotation Xrotation Yrotation 
	JOINT Hips
	{
		OFFSET -17.1583 93.1646 452.98
		CHANNELS 6 Xposition Yposition Zposition Zrotation Xrotation Yrotation 
		JOINT Spine
		{
			OFFSET 15.7357 0.0 0.0
			CHANNELS 6 Xposition Yposition Zposition Zrotation Xrotation Yrotation 
			JOINT Chest
			{
				OFFSET 8.98455 -0.406207 0.0
				CHANNELS 6 Xposition Yposition Zposition Zrotation Xrotation Yrotation 
				JOINT Neck
				{
					OFFSET 16.3773 0.0 0.0
					CHANNELS 6 Xposition Yposition Zposition Zrotation Xrotation Yrotation 
					JOINT Head
					{
						OFFSET 6.45672 0.0 0.0
						CHANNELS 6 Xposition Yposition Zposition Zrotation Xrotation Yrotation 
						End Site
						{
							OFFSET 0.0 0.0 0.0
						}
					}
				}
				JOINT Shoulder_L
				{
					OFFSET 12.9942 -0.242716 4.98039
					CHANNELS 6 Xposition Yposition Zposition Zrotation Xrotation Yrotation 
					JOINT UpperArm_L
					{
						OFFSET 5.34809 0.0 0.0
						CHANNELS 6 Xposition Yposition Zposition Zrotation Xrotation Yrotation 
						JOINT LowerArm_L
						{
							OFFSET 24.3286 1.87007e-05 0.0
							CHANNELS 6 Xposition Yposition Zposition Zrotation Xrotation Yrotation 
							JOINT Hand_L
							{
								OFFSET 22.2916 0.0 0.0
								CHANNELS 6 Xposition Yposition Zposition Zrotation Xrotation Yrotation 
								End Site
								{
									OFFSET 0.0 0.0 0.0
								}
							}
						}
					}
				}
				JOINT Shoulder_R
				{
					OFFSET 12.9945 -0.242716 -4.98039
					CHANNELS 6 Xposition Yposition Zposition Zrotation Xrotation Yrotation 
					JOINT UpperArm_R
					{
						OFFSET -5.34813 0.0 0.0
						CHANNELS 6 Xposition Yposition Zposition Zrotation Xrotation Yrotation 
						JOINT LowerArm_R
						{
							OFFSET -24.3289 0.000322201 0.0
							CHANNELS 6 Xposition Yposition Zposition Zrotation Xrotation Yrotation 
							JOINT Hand_R
							{
								OFFSET -22.2915 -0.000108084 0.0
								CHANNELS 6 Xposition Yposition Zposition Zrotation Xrotation Yrotation 
								End Site
								{
									OFFSET 0.0 0.0 0.0
								}
							}
						}
					}
				}
			}
		}
		JOINT UpperLeg_L
		{
			OFFSET -2.19248 -6.46944 0.0
			CHANNELS 6 Xposition Yposition Zposition Zrotation Xrotation Yrotation 
			JOINT LowerLeg_L
			{
				OFFSET 39.0811 0.0 -1.23785e-05
				CHANNELS 6 Xposition Yposition Zposition Zrotation Xrotation Yrotation 
				JOINT Foot_L
				{
					OFFSET 40.9854 0.0 -1.26872e-05
					CHANNELS 6 Xposition Yposition Zposition Zrotation Xrotation Yrotation 
					JOINT Toes_L
					{
						OFFSET 11.7543 0.0 0.0
						CHANNELS 6 Xposition Yposition Zposition Zrotation Xrotation Yrotation 
						End Site
						{
							OFFSET 0.0 0.0 0.0
						}
					}
				}
			}
		}
		JOINT UpperLeg_R
		{
			OFFSET -2.19251 6.46944 0.0
			CHANNELS 6 Xposition Yposition Zposition Zrotation Xrotation Yrotation 
			JOINT LowerLeg_R
			{
				OFFSET -39.0811 -0.00228153 -0.0401928
				CHANNELS 6 Xposition Yposition Zposition Zrotation Xrotation Yrotation 
				JOINT Foot_R
				{
					OFFSET -40.9854 0.0 0.0
					CHANNELS 6 Xposition Yposition Zposition Zrotation Xrotation Yrotation 
					JOINT Toes_R
					{
						OFFSET -11.7543 0.0 0.0
						CHANNELS 6 Xposition Yposition Zposition Zrotation Xrotation Yrotation 
						End Site
						{
							OFFSET 0.0 0.0 0.0
						}
					}
				}
			}
		}
	}
}
MOTION
Frames:	4
Frame Time:	0.0333333
0.000000 0.000000 0.000000 0.000000 0.000000 -0.000000 88.245900 89.571100 227.545000 -92.879900 74.637200 -172.397000 15.735700 0.000005 -0.000001 76.610100 84.753600 -74.757500 8.984550 -0.406207 -0.000000 2.487090 -2.513230 3.756520 16.377300 -0.000001 -0.000001 20.176500 16.533600 -4.663720 6.456720 -0.000001 -0.000000 4.727110 27.696100 -0.183743 12.994200 -0.242716 4.980390 -92.479600 5.949810 -67.326600 5.348090 -0.000007 -0.000001 -77.149300 2.380140 -0.350223 24.328600 0.000019 0.000005 9.491970 15.253800 -32.416600 22.291600 -0.000001 0.000005 50.107800 4.508730 16.454300 12.994500 -0.242716 -4.980390 89.971100 0.078310 -69.732100 -5.348130 -0.000001 -0.000004 -72.194300 8.929680 -0.416671 -24.328900 0.000322 -0.000009 2.174710 9.645830 -12.776300 -22.291500 -0.000108 -0.000004 44.067200 5.343470 -1.182350 -2.192480 -6.469440 -0.000000 165.569000 -0.425479 -7.614590 39.081100 -0.000007 -0.000012 0.389301 -0.745438 27.576600 40.985400 -0.000006 -0.000013 16.354300 6.332330 -69.056500 11.754300 -0.000000 0.000003 -0.000835 0.180668 -9.248210 -2.192510 6.469440 -0.000001 169.883000 1.733570 162.944000 -39.081100 -0.002282 -0.040193 0.191254 -0.072355 68.962900 -40.985400 0.000008 0.000006 -8.308340 -1.613010 -48.267100 -11.754300 -0.000006 -0.000006 -0.000742 0.179333 -9.298960
0.000000 0.000000 0.000000 0.000000 0.000000 -0.000000 91.636800 90.291700 226.903000 -87.067100 71.408200 -177.967000 15.735700 0.000005 -0.000001 72.303400 84.509100 -69.778500 8.984550 -0.406207 -0.000000 2.781510 -3.444890 5.129520 16.377300 -0.000001 -0.000001 19.583900 16.187400 -4.444170 6.456720 -0.000001 -0.000000 4.632820 27.357200 -0.244573 12.994200 -0.242716 4.980390 -92.365300 5.832880 -67.881000 5.348090 -0.000007 -0.000001 -76.644900 3.498100 -1.685120 24.328600 0.000019 0.000005 15.797300 18.925000 -41.084400 22.291600 -0.000001 0.000005 50.835500 4.515820 16.337600 12.994500 -0.242716 -4.980390 90.102100 -0.271432 -69.394800 -5.348130 -0.000001 -0.000004 -71.112800 6.982320 1.997260 -24.328900 0.000322 -0.000009 1.799740 10.499500 -9.790800 -22.291500 -0.000108 -0.000004 43.890400 5.330120 -0.788847 -2.192480 -6.469440 -0.000000 167.581000 1.260640 -2.689100 39.081100 -0.000007 -0.000012 0.295737 -0.669029 23.847900 40.985400 -0.000006 -0.000013 16.531500 7.995040 -70.007200 11.754300 -0.000000 0.000003 -0.000566 0.176658 -9.411140 -2.192510 6.469440 -0.000001 172.205000 -0.773134 160.320000 -39.081100 -0.002282 -0.040193 0.081491 -0.037025 64.699000 -40.985400 0.000008 0.000006 -6.582340 -8.231530 -56.280200 -11.754300 -0.000006 -0.000006 -0.001715 0.192760 -8.753220
0.000000 0.000000 0.000000 0.000000 0.000000 -0.000000 94.831400 90.875300 226.387000 -83.243900 67.492300 177.761000 15.735700 0.000005 -0.000001 67.412000 84.438800 -64.285800 8.984550 -0.406207 -0.000000 2.638330 -4.408260 6.350220 16.377300 -0.000001 -0.000001 18.657800 15.657200 -3.861550 6.456720 -0.000001 -0.000000 4.256920 26.877100 -0.197420 12.994200 -0.242716 4.980390 -92.285100 5.762350 -68.325200 5.348090 -0.000007 -0.000001 -75.400200 3.688220 -3.250440 24.328600 0.000019 0.000005 22.649000 20.733500 -49.679200 22.291600 -0.000001 0.000005 50.885200 4.495980 16.666300 12.994500 -0.242716 -4.980390 90.140600 -0.365549 -68.956600 -5.348130 -0.000001 -0.000004 -69.820800 4.418630 4.877240 -24.328900 0.000322 -0.000009 1.616730 11.227600 -8.253760 -22.291500 -0.000108 -0.000004 43.193100 5.319880 -0.491906 -2.192480 -6.469440 -0.000000 169.646000 3.939070 1.435150 39.081100 -0.000007 -0.000012 0.192076 -0.532122 19.848000 40.985400 -0.000006 -0.000013 16.495600 9.528080 -70.368900 11.754300 -0.000000 0.000003 0.000716 0.154557 -10.308600 -2.192510 6.469440 -0.000001 173.980000 -3.275190 158.385000 -39.081100 -0.002282 -0.040193 0.009435 -0.004057 56.871600 -40.985400 0.000008 0.000006 -4.553420 -15.279400 -61.709200 -11.754300 -0.000006 -0.000006 -0.001881 0.194881 -8.666960
0.000000 0.000000 0.000000 0.000000 0.000000 -0.000000 98.015900 91.301700 225.797000 -82.164200 63.428500 176.091000 15.735700 0.000005 -0.000001 63.106000 84.370000 -59.672200 8.984550 -0.406207 -0.000000 2.452240 -5.248410 6.977280 16.377300 -0.000001 -0.000001 17.546600 15.085800 -3.148240 6.456720 -0.000001 -0.000000 3.750060 26.189300 0.027712 12.994200 -0.242716 4.980390 -92.106800 5.457010 -68.852400 5.348090 -0.000007 -0.000001 -74.115100 3.317930 -5.227410 24.328600 0.000019 0.000005 28.088600 20.718500 -56.457000 22.291600 -0.000001 0.000005 50.858800 4.479730 16.932700 12.994500 -0.242716 -4.980390 90.163300 -0.412984 -68.426200 -5.348130 -0.000001 -0.000004 -68.653700 1.817270 7.779630 -24.328900 0.000322 -0.000009 1.537230 11.834400 -7.460200 -22.291500 -0.000108 -0.000004 42.710600 5.309190 -0.186869 -2.192480 -6.469440 -0.000000 171.705000 6.326100 3.983330 39.081100 -0.000007 -0.000012 0.073599 -0.229959 17.747500 40.985400 -0.000006 -0.000013 11.746700 12.547900 -69.269700 11.754300 -0.000000 0.000003 0.001114 0.146106 -10.651600 -2.192510 6.469440 -0.000001 174.201000 -5.894800 157.951000 -39.081100 -0.002282 -0.040193 -0.008512 0.011368 46.002800 -40.985400 0.000008 0.000006 -3.849840 -20.756500 -65.626300 -11.754300 -0.000006 -0.000006 -0.002459 0.201986 -8.378000
